<svg width="500" height="500" viewBox="0 0 500 500" xmlns="http://www.w3.org/2000/svg">
  <rect width="500" height="500" fill="black" />

  <defs>
    <linearGradient id="grad-orange" x1="0%" y1="0%" x2="0%" y2="100%">
      <stop offset="0%" style="stop-color:#FFB800;stop-opacity:1" />
      <stop offset="100%" style="stop-color:#FF7A00;stop-opacity:1" />
    </linearGradient>
    <linearGradient id="grad-green" x1="0%" y1="0%" x2="0%" y2="100%">
      <stop offset="0%" style="stop-color:#A5D63F;stop-opacity:1" />
      <stop offset="100%" style="stop-color:#1E9640;stop-opacity:1" />
    </linearGradient>
    <linearGradient id="grad-blue" x1="0%" y1="0%" x2="0%" y2="100%">
      <stop offset="0%" style="stop-color:#00C2FF;stop-opacity:1" />
      <stop offset="100%" style="stop-color:#0057FF;stop-opacity:1" />
    </linearGradient>
    <linearGradient id="grad-arrow" x1="0%" y1="0%" x2="100%" y2="0%">
      <stop offset="0%" style="stop-color:#0085FF;stop-opacity:1" />
      <stop offset="100%" style="stop-color:#00E0FF;stop-opacity:1" />
    </linearGradient>
  </defs>

  <circle cx="250" cy="180" r="110" fill="white" />
  
  <path d="M175 210 L230 190 V240 L175 255 Z" fill="url(#grad-orange)" stroke="black" stroke-width="2"/>
  <path d="M220 180 L275 160 V245 L220 255 Z" fill="url(#grad-green)" stroke="black" stroke-width="2"/>
  <path d="M270 150 L315 140 V240 L270 255 Z" fill="url(#grad-blue)" stroke="black" stroke-width="2"/>

  <path d="M240 145 Q280 120 330 100 L315 130 L345 105 L310 85 L320 110 Q280 130 240 155 Z" fill="url(#grad-arrow)" stroke="black" stroke-width="1"/>

  <path d="M150 210 Q200 280 350 230" fill="none" stroke="white" stroke-width="5" stroke-linecap="round"/>

  <g font-family="Arial, sans-serif" font-weight="bold" text-anchor="middle">
    <text x="250" y="335" font-size="52">
      <tspan fill="white">S/R/E</tspan>
      <tspan fill="#4DBFFF"> Platform</tspan>
    </text>
    
    <text x="250" y="370" font-size="18" letter-spacing="1">
      <tspan fill="#FFA500">Struggle </tspan>
      <tspan fill="white">/</tspan>
      <tspan fill="#7CFC00"> Reflect </tspan>
      <tspan fill="white">/</tspan>
      <tspan fill="#4DBFFF"> Evolve</tspan>
    </text>
  </g>

  <line x1="85" y1="364" x2="125" y2="364" stroke="white" stroke-width="1.5" />
  <line x1="375" y1="364" x2="415" y2="364" stroke="white" stroke-width="1.5" />

</svg>
